<svg xmlns="http://www.w3.org/2000/svg" viewBox="0 0 20.82 24"><defs><style>.cls-1{fill:#004b28;}</style></defs><g id="Layer_2" data-name="Layer 2"><g id="Layer_1-2" data-name="Layer 1"><path class="cls-1" d="M20.32,12.08a2.83,2.83,0,0,0-2.41.14,2,2,0,0,0-1,.74,3.57,3.57,0,0,1-.58,1.11,4.5,4.5,0,0,1-1,.81c-.42.22-.69-.2-.93-.52a3.3,3.3,0,0,1-.62-2.26,10.37,10.37,0,0,1,.32-2.42c.24-1,.35-2,.5-2.95s.29-1.75.42-2.63c.1-.67.16-1.55-.64-1.84-.25-.09-.78-.1-1,.15a2.87,2.87,0,0,0-.39,1c-.17.64-.41,1.31-.57,2S12.14,7,12,7.73c-.06.27-.46,2.32-.79,2.22s-.35-.84-.4-1.1c-.07-.44-.14-.87-.18-1.31-.09-.88-.06-1.76-.18-2.64s-.26-1.58-.32-2.38S10.14.85,9.61.31A.93.93,0,0,0,8,.67a3.94,3.94,0,0,0-.09,1.19c0,.41,0,.82,0,1.24,0,.81.12,1.65.1,2.46s.1,1.63.14,2.44a6.64,6.64,0,0,1,0,1.18c0,.32-.05,1.05-.33,1.24-.24-.78-.45-1.56-.65-2.34S6.7,6.47,6.56,5.66,5.69,1.57,4.31,2.59c-.64.48-.28,1.68-.19,2.32.06.4.58,4,.76,4.8a13.66,13.66,0,0,1,.4,2.3c-.25,0-.61-.39-.77-.57s-.52-.5-.75-.77c-.52-.63-1-1.24-1.51-1.88-.34-.43-.55-1-1-1.34S.08,7.58,0,8.19A2.08,2.08,0,0,0,.4,9.35q.31.6.66,1.17c.22.36,1.21,1.7,1.45,2a3.38,3.38,0,0,1,.68,1.21,5.06,5.06,0,0,1,.31.78c.12.79.31,1.57.45,2.35.07.43.15.86.23,1.28a6.81,6.81,0,0,0,.3,1.28,1.83,1.83,0,0,1,.33,1.1,4.61,4.61,0,0,1-.5,1.24c-.24.53,1.43,1,1.74,1.08.85.28,1.71.5,2.58.71a17.26,17.26,0,0,0,2.66.48c.34,0,.51-.61.65-.86l.31-.57a.44.44,0,0,1,.19-.16,1.11,1.11,0,0,0-.12-.27.85.85,0,0,0-.42-.22,2.6,2.6,0,0,1-.45-.28l-.43-.3c-.27-.18-.54-.35-.8-.54a1.55,1.55,0,0,0-.32-.14,1.4,1.4,0,0,0-.54-.15,1.86,1.86,0,0,1-.47,0,4.21,4.21,0,0,0-.51-.12l-.52-.14A.91.91,0,0,1,7.41,20c-.15-.2-.13-.49.14-.56a1.77,1.77,0,0,1,.68.09l1,.1h.43c.1,0,.32,0,.39-.06A5.46,5.46,0,0,0,9.24,19c-.28-.18-.56-.38-.84-.58-.12-.09-.22-.2-.34-.29s-.28-.19-.41-.28S7,17.48,7,17.16c.1-.69,1.26.05,1.52.23a9.68,9.68,0,0,0,.88.52c.28.16.56.33.85.48,0-.13-.17-.35-.25-.45s-.23-.23-.34-.34A9.4,9.4,0,0,1,9,16.94c-.23-.23-.49-.45-.74-.67l-.35-.36a1.89,1.89,0,0,1-.32-.37A.38.38,0,0,1,7.91,15c.3,0,.55.31.76.5s.52.39.78.59.53.47.8.7l.43.32c.09.06.32.26.43.21s-.35-.77-.41-.87c-.17-.28-.35-.54-.52-.82s-.26-.49-.4-.73a1,1,0,0,1-.17-.4c0-.13.13-.28.23-.32.31-.15.54.12.71.34s.42.59.64.88a11.63,11.63,0,0,1,.69,1,4.11,4.11,0,0,0,.61.78,1.35,1.35,0,0,0,.82.47c.16,0,.36.07.42-.11a1.84,1.84,0,0,0,0-.52,1.64,1.64,0,0,0-.15-.49A.76.76,0,0,1,13.7,16a1.12,1.12,0,0,1,.65-.73.28.28,0,0,1,.29,0c.14.09.08.24.06.38a2.7,2.7,0,0,0,0,.9c.06.26,0,.53.11.79a2.81,2.81,0,0,0,.21.47,1.09,1.09,0,0,1,.09.56c0,.16,0,.33,0,.49s0,.36,0,.54,0,.35,0,.53a3,3,0,0,1,.24-.26c.3-.26.62-.52.89-.8a2.8,2.8,0,0,0,.83-1.13,6.46,6.46,0,0,1,.46-1.2c.33-.58.83-1,1.18-1.58a6.92,6.92,0,0,1,1.51-1.6c.27-.23.64-.38.56-.79A.73.73,0,0,0,20.32,12.08Z"/></g></g></svg>