<svg xmlns="http://www.w3.org/2000/svg" width="122.867" height="39.851" viewBox="0 0 122.867 39.851"><g transform="translate(-376.403 -285.67)"><text transform="translate(467.77 305.67)" fill="#fff" font-size="20" font-family="Lato-Medium, Lato" font-weight="500"><tspan x="-29.725" y="0">impact</tspan></text><text transform="translate(468.27 320.521)" fill="#ffd400" font-size="19" font-family="Helvetica"><tspan x="-30.096" y="0">Nigeria</tspan></text><path d="M417.141,309.838a33,33,0,0,1,14.262,6.428l-18.788-18.788a2.438,2.438,0,0,0-3.448,0l-2.193,2.193Z" fill="rgba(217,184,0,0.8)" stroke="#fff" stroke-linecap="round" stroke-linejoin="round" stroke-width="1"/><path d="M400.15,311.145a37.607,37.607,0,0,1,23.247,7.949L402.1,297.8a2.764,2.764,0,0,0-3.908,0L376.9,319.094A37.609,37.609,0,0,1,400.15,311.145Z" fill="#d9b800" stroke="#fff" stroke-linecap="round" stroke-linejoin="round" stroke-width="1"/><path d="M389.484,314.662l-1.605,1.6a32.142,32.142,0,0,1,2.743-1.922C390.239,314.442,389.862,314.552,389.484,314.662Z" fill="#d9b800" stroke="#fff" stroke-linecap="round" stroke-linejoin="round" stroke-width="1"/></g></svg>