<?xml version="1.0" encoding="UTF-8" standalone="no"?>
<!DOCTYPE svg PUBLIC "-//W3C//DTD SVG 1.1//EN" "http://www.w3.org/Graphics/SVG/1.1/DTD/svg11.dtd">
<svg width="100%" height="100%" viewBox="0 0 123 35" version="1.1" xmlns="http://www.w3.org/2000/svg" xmlns:xlink="http://www.w3.org/1999/xlink" xml:space="preserve" xmlns:serif="http://www.serif.com/" style="fill-rule:evenodd;clip-rule:evenodd;stroke-linejoin:round;stroke-miterlimit:2;">
    <path d="M65.42,1.35C65.419,1.526 65.382,1.7 65.31,1.86C65.243,2.021 65.145,2.168 65.02,2.29C64.897,2.419 64.747,2.518 64.58,2.58C64.416,2.651 64.239,2.688 64.06,2.69C63.884,2.689 63.71,2.652 63.55,2.58C63.389,2.518 63.245,2.418 63.13,2.29C63.002,2.17 62.903,2.023 62.84,1.86C62.768,1.7 62.731,1.526 62.73,1.35C62.731,1.168 62.768,0.988 62.84,0.82C62.906,0.661 63.005,0.518 63.13,0.4C63.248,0.272 63.391,0.17 63.55,0.1C63.711,0.031 63.885,-0.003 64.06,0C64.238,-0.002 64.415,0.032 64.58,0.1C64.738,0.171 64.881,0.273 65,0.4C65.122,0.521 65.22,0.663 65.29,0.82C65.369,0.986 65.413,1.166 65.42,1.35ZM65.05,4.49L65.05,14.65L63.1,14.65L63.1,4.49L65.05,4.49Z" style="fill:white;fill-rule:nonzero;"/>
    <path d="M67.88,14.65L67.88,4.49L69.05,4.49C69.295,4.466 69.519,4.637 69.56,4.88L69.7,5.88C70.07,5.436 70.509,5.054 71,4.75C71.483,4.463 72.038,4.317 72.6,4.33C73.195,4.307 73.779,4.503 74.24,4.88C74.682,5.287 75.001,5.81 75.16,6.39C75.297,6.051 75.49,5.736 75.73,5.46C75.954,5.206 76.218,4.99 76.51,4.82C76.797,4.652 77.107,4.527 77.43,4.45C77.757,4.368 78.093,4.328 78.43,4.33C78.924,4.326 79.416,4.41 79.88,4.58C80.291,4.742 80.657,4.999 80.95,5.33C81.256,5.681 81.485,6.094 81.62,6.54C81.779,7.072 81.856,7.625 81.85,8.18L81.85,14.65L79.85,14.65L79.85,8.18C79.896,7.567 79.722,6.957 79.36,6.46C78.99,6.056 78.456,5.843 77.91,5.88C77.637,5.88 77.367,5.927 77.11,6.02C76.863,6.121 76.638,6.271 76.45,6.46C76.25,6.665 76.097,6.911 76,7.18C75.883,7.5 75.825,7.839 75.83,8.18L75.83,14.65L73.83,14.65L73.83,8.18C73.879,7.563 73.713,6.948 73.36,6.44C73.015,6.057 72.514,5.851 72,5.88C71.587,5.878 71.181,5.992 70.83,6.21C70.446,6.448 70.107,6.753 69.83,7.11L69.83,14.65L67.88,14.65Z" style="fill:white;fill-rule:nonzero;"/>
    <path d="M86.26,6C86.472,5.75 86.703,5.516 86.95,5.3C87.189,5.091 87.45,4.91 87.73,4.76C88.016,4.611 88.318,4.494 88.63,4.41C88.957,4.329 89.293,4.288 89.63,4.29C90.176,4.28 90.717,4.397 91.21,4.63C91.684,4.862 92.096,5.205 92.41,5.63C92.767,6.121 93.031,6.674 93.19,7.26C93.38,7.988 93.471,8.738 93.46,9.49C93.466,10.198 93.365,10.903 93.16,11.58C92.972,12.187 92.678,12.756 92.29,13.26C91.514,14.242 90.321,14.805 89.07,14.78C88.534,14.794 88.002,14.691 87.51,14.48C87.073,14.276 86.68,13.991 86.35,13.64L86.35,18.05L84.35,18.05L84.35,4.49L85.52,4.49C85.765,4.466 85.989,4.637 86.03,4.88L86.26,6ZM86.36,12.14C86.618,12.509 86.961,12.811 87.36,13.02C87.75,13.193 88.173,13.278 88.6,13.27C89.416,13.306 90.199,12.93 90.68,12.27C91.222,11.438 91.479,10.451 91.41,9.46C91.421,8.902 91.367,8.345 91.25,7.8C91.163,7.402 91,7.026 90.77,6.69C90.568,6.426 90.303,6.216 90,6.08C89.683,5.948 89.343,5.88 89,5.88C88.484,5.867 87.975,5.999 87.53,6.26C87.075,6.539 86.681,6.906 86.37,7.34L86.36,12.14Z" style="fill:white;fill-rule:nonzero;"/>
    <path d="M95.4,5.91C95.934,5.393 96.562,4.982 97.25,4.7C97.944,4.426 98.684,4.29 99.43,4.3C99.957,4.293 100.48,4.388 100.97,4.58C101.401,4.76 101.787,5.034 102.1,5.38C102.415,5.734 102.654,6.149 102.8,6.6C102.947,7.11 103.014,7.64 103,8.17L103,14.65L102.13,14.65C101.977,14.661 101.824,14.626 101.69,14.55C101.573,14.464 101.488,14.341 101.45,14.2L101.24,13.31C100.996,13.535 100.739,13.746 100.47,13.94C100.221,14.122 99.957,14.283 99.68,14.42C99.393,14.545 99.095,14.642 98.79,14.71C98.461,14.778 98.126,14.812 97.79,14.81C97.411,14.81 97.034,14.756 96.67,14.65C96.332,14.543 96.02,14.37 95.75,14.14C95.487,13.905 95.278,13.615 95.14,13.29C94.982,12.914 94.903,12.508 94.91,12.1C94.912,11.691 95.027,11.289 95.24,10.94C95.5,10.52 95.866,10.175 96.3,9.94C96.901,9.607 97.548,9.364 98.22,9.22C99.177,9.014 100.152,8.907 101.13,8.9L101.13,8.17C101.179,7.557 101.005,6.946 100.64,6.45C100.272,6.05 99.741,5.84 99.2,5.88C98.836,5.855 98.47,5.896 98.12,6C97.859,6.096 97.608,6.216 97.37,6.36C97.18,6.467 96.997,6.583 96.82,6.71C96.677,6.813 96.506,6.869 96.33,6.87C96.215,6.882 96.1,6.857 96,6.8C95.903,6.731 95.821,6.643 95.76,6.54L95.4,5.91ZM101.12,10.14C100.45,10.161 99.783,10.221 99.12,10.32C98.656,10.395 98.202,10.526 97.77,10.71C97.479,10.835 97.222,11.027 97.02,11.27C96.87,11.484 96.789,11.739 96.79,12C96.783,12.224 96.827,12.446 96.92,12.65C96.988,12.829 97.106,12.986 97.26,13.1C97.405,13.223 97.576,13.312 97.76,13.36C97.966,13.412 98.178,13.439 98.39,13.44C98.669,13.442 98.948,13.412 99.22,13.35C99.464,13.295 99.699,13.208 99.92,13.09C100.144,12.979 100.355,12.845 100.55,12.69C100.761,12.523 100.958,12.339 101.14,12.14L101.12,10.14Z" style="fill:white;fill-rule:nonzero;"/>
    <path d="M112.77,6.39C112.719,6.452 112.662,6.509 112.6,6.56C112.528,6.613 112.439,6.638 112.35,6.63C112.221,6.632 112.096,6.586 112,6.5L111.56,6.23C111.352,6.127 111.138,6.037 110.92,5.96C110.618,5.873 110.304,5.832 109.99,5.84C109.553,5.833 109.119,5.922 108.72,6.1C108.361,6.268 108.048,6.522 107.81,6.84C107.557,7.188 107.374,7.582 107.27,8C107.141,8.506 107.077,9.027 107.08,9.55C107.075,10.087 107.143,10.621 107.28,11.14C107.394,11.56 107.588,11.953 107.85,12.3C108.087,12.61 108.396,12.857 108.75,13.02C109.12,13.191 109.523,13.276 109.93,13.27C110.27,13.278 110.609,13.223 110.93,13.11C111.168,13.026 111.397,12.916 111.61,12.78C111.766,12.678 111.916,12.568 112.06,12.45C112.159,12.352 112.291,12.295 112.43,12.29C112.576,12.281 112.717,12.35 112.8,12.47L113.36,13.19C113.138,13.471 112.875,13.717 112.58,13.92C112.29,14.118 111.978,14.283 111.65,14.41C111.327,14.538 110.992,14.632 110.65,14.69C110.29,14.75 109.925,14.78 109.56,14.78C108.953,14.783 108.351,14.664 107.79,14.43C107.244,14.209 106.755,13.867 106.36,13.43C105.923,12.95 105.583,12.39 105.36,11.78C105.118,11.069 104.999,10.321 105.01,9.57C105.005,8.861 105.113,8.155 105.33,7.48C105.524,6.869 105.841,6.305 106.26,5.82C106.678,5.353 107.193,4.985 107.77,4.74C109.049,4.219 110.479,4.201 111.77,4.69C112.325,4.921 112.829,5.261 113.25,5.69L112.77,6.39Z" style="fill:white;fill-rule:nonzero;"/>
    <path d="M118.4,14.81C117.701,14.856 117.015,14.605 116.51,14.12C116.025,13.572 115.783,12.85 115.84,12.12L115.84,6.07L114.66,6.07C114.556,6.072 114.455,6.033 114.38,5.96C114.293,5.882 114.249,5.766 114.26,5.65L114.26,4.86L115.91,4.63L116.35,1.63C116.375,1.526 116.431,1.432 116.51,1.36C116.593,1.297 116.696,1.265 116.8,1.27L117.8,1.27L117.8,4.65L120.68,4.65L120.68,6.07L117.8,6.07L117.8,12C117.774,12.328 117.883,12.653 118.1,12.9C118.298,13.097 118.571,13.203 118.85,13.19C119.01,13.195 119.169,13.171 119.32,13.12C119.435,13.079 119.546,13.025 119.65,12.96L119.89,12.81C119.941,12.769 120.004,12.744 120.07,12.74C120.122,12.722 120.178,12.722 120.23,12.74C120.273,12.785 120.31,12.836 120.34,12.89L120.92,13.83C120.588,14.129 120.201,14.36 119.78,14.51C119.341,14.691 118.874,14.793 118.4,14.81Z" style="fill:white;fill-rule:nonzero;"/>
    <g>
        <path d="M61.2,18.16L61.2,17.51L65.32,17.51C66.32,18.37 67.05,19.12 67.65,19.74C68.25,20.36 70.44,22.55 74.21,26.3L74.21,24.92C74.21,24.29 74.21,23.79 74.13,23.43C74.05,23.07 74.13,22.62 74.13,22.11C74.13,21.6 74.13,21.11 74.06,20.72C73.99,19.91 73.95,19.44 73.95,19.32C73.981,19.069 73.936,18.815 73.82,18.59C73.561,18.4 73.251,18.292 72.93,18.28C72.667,18.252 72.41,18.181 72.17,18.07L72.17,17.52L72.41,17.52L74.24,17.47L76.24,17.41L76.63,17.41L76.63,18C76.491,18.072 76.343,18.126 76.19,18.16C75.958,18.207 75.731,18.274 75.51,18.36C75.33,18.45 75.159,18.557 75,18.68C74.932,18.783 74.9,18.907 74.91,19.03C74.92,19.153 74.91,19.19 74.91,19.42L74.91,20.19C74.91,21.09 74.91,21.8 74.98,22.32C74.991,22.507 74.991,22.693 74.98,22.88L75.08,26.14L75.08,29.69L74.01,29.69L73,28.61L70.7,26.37L69.13,24.8L68,23.61C67.24,22.87 66.56,22.22 65.94,21.61L64.4,20.29L64.48,23.74L64.48,25.05L64.54,26.26C64.54,26.77 64.54,27.32 64.64,27.91C64.633,28.023 64.633,28.137 64.64,28.25C64.64,28.32 64.7,28.41 64.75,28.54C65.268,28.66 65.798,28.724 66.33,28.73L66.57,28.8L66.57,29.55L66.21,29.55C66.01,29.55 65.39,29.55 64.33,29.41C63.27,29.27 62.7,29.41 62.33,29.41L61.79,29.41C61.687,29.421 61.583,29.421 61.48,29.41L61.48,28.71C61.622,28.682 61.766,28.666 61.91,28.66L62.27,28.66C62.585,28.694 62.904,28.653 63.2,28.54C63.29,28.47 63.35,28.26 63.36,27.92C63.36,26.92 63.42,26.34 63.42,26.12L63.42,20.73C63.442,20.229 63.395,19.728 63.28,19.24C63.251,19.095 63.177,18.962 63.07,18.86C62.862,18.652 62.618,18.482 62.35,18.36C61.971,18.269 61.587,18.202 61.2,18.16Z" style="fill:rgb(255,212,0);fill-rule:nonzero;"/>
        <path d="M77.42,29.45L77.42,28.84L78.42,28.7C78.547,28.68 78.662,28.612 78.74,28.51C78.818,28.334 78.849,28.141 78.83,27.95L78.83,23.84C78.83,23.642 78.809,23.444 78.77,23.25C78.67,23.138 78.542,23.056 78.4,23.01C78.091,22.918 77.772,22.868 77.45,22.86L77.45,22.34C78.031,22.316 78.601,22.18 79.13,21.94C79.53,21.742 79.893,21.474 80.2,21.15L80.82,21.15L80.82,24.15L80.75,27.93L80.75,28.64C81.056,28.737 81.371,28.804 81.69,28.84C81.826,28.86 81.96,28.894 82.09,28.94L82.09,29.45L81.29,29.45C80.66,29.45 79.82,29.4 78.76,29.4L77.88,29.4L77.42,29.45ZM78.72,18.38C78.709,18.074 78.825,17.777 79.04,17.56C79.264,17.342 79.568,17.226 79.88,17.24C80.216,17.228 80.544,17.351 80.79,17.58C81.016,17.768 81.148,18.046 81.15,18.34C81.148,18.568 81.096,18.793 81,19C80.9,19.211 80.74,19.389 80.54,19.51C80.351,19.628 80.133,19.694 79.91,19.7C79.596,19.692 79.299,19.554 79.09,19.32C78.842,19.071 78.708,18.731 78.72,18.38Z" style="fill:rgb(255,212,0);fill-rule:nonzero;"/>
        <path d="M85.15,30.69C84.545,30.6 83.972,30.363 83.48,30C83.217,29.758 83.065,29.418 83.06,29.06C83.045,28.824 83.129,28.593 83.29,28.42C83.923,27.951 84.591,27.533 85.29,27.17C84.797,26.909 84.365,26.548 84.02,26.11C83.748,25.722 83.595,25.263 83.58,24.79C83.587,24.366 83.668,23.946 83.82,23.55C84.144,22.944 84.642,22.449 85.25,22.13C85.979,21.795 86.778,21.637 87.58,21.67C87.915,21.664 88.249,21.688 88.58,21.74C88.802,21.789 89.019,21.855 89.23,21.94L89.58,22.07C89.873,22.254 90.151,22.461 90.41,22.69C90.846,22.604 91.277,22.494 91.7,22.36C91.891,22.297 92.089,22.264 92.29,22.26C92.412,22.254 92.527,22.315 92.59,22.42C92.686,22.654 92.724,22.908 92.7,23.16C92.72,23.405 92.671,23.651 92.56,23.87C92.502,23.98 92.393,24.055 92.27,24.07C92.158,24.041 92.05,23.998 91.95,23.94C91.637,23.779 91.299,23.674 90.95,23.63C91.092,24.021 91.166,24.434 91.17,24.85C91.168,25.309 91.032,25.757 90.78,26.14C90.51,26.563 90.134,26.908 89.69,27.14C89.106,27.467 88.449,27.642 87.78,27.65C87.504,27.665 87.226,27.665 86.95,27.65C86.73,27.65 86.43,27.57 86.04,27.49C85.643,27.688 85.273,27.936 84.94,28.23C84.836,28.316 84.777,28.445 84.78,28.58C84.78,28.709 84.839,28.83 84.94,28.91C85.095,29.032 85.283,29.105 85.48,29.12L87.92,29.12C89.004,29.018 90.094,29.263 91.03,29.82C91.583,30.223 91.91,30.866 91.91,31.55C91.907,31.928 91.8,32.299 91.6,32.62C91.392,32.966 91.104,33.258 90.76,33.47C90.285,33.741 89.773,33.94 89.24,34.06C88.54,34.236 87.821,34.323 87.1,34.32C86.353,34.301 85.611,34.194 84.89,34C84.317,33.882 83.788,33.609 83.36,33.21C83.102,32.993 82.946,32.677 82.93,32.34C82.931,32.032 83.062,31.737 83.29,31.53C83.853,31.137 84.483,30.852 85.15,30.69ZM88,33.63C88.763,33.576 89.498,33.321 90.13,32.89C90.398,32.729 90.576,32.451 90.61,32.14C90.611,32 90.577,31.863 90.51,31.74C90.419,31.586 90.296,31.453 90.15,31.35C89.968,31.227 89.764,31.139 89.55,31.09C89.134,31.019 88.712,30.985 88.29,30.99L87.15,30.99C86.462,30.924 85.769,31.052 85.15,31.36C84.811,31.577 84.613,31.958 84.63,32.36C84.644,32.605 84.747,32.836 84.92,33.01C85.199,33.268 85.546,33.442 85.92,33.51C86.396,33.636 86.887,33.7 87.38,33.7L88,33.63ZM87.47,27C87.886,26.998 88.278,26.802 88.53,26.47C88.884,25.977 89.051,25.374 89,24.77C89.066,24.08 88.931,23.385 88.61,22.77C88.343,22.433 87.93,22.243 87.5,22.26L87.01,22.26C86.666,22.352 86.374,22.579 86.2,22.89C85.932,23.332 85.803,23.844 85.83,24.36C85.83,24.52 85.83,24.86 85.89,25.36C85.887,25.578 85.924,25.795 86,26C86.084,26.205 86.202,26.395 86.35,26.56C86.488,26.701 86.655,26.81 86.84,26.88C87.04,26.963 87.254,27.003 87.47,27Z" style="fill:rgb(255,212,0);fill-rule:nonzero;"/>
        <path d="M93.56,24.52C93.662,24.153 93.81,23.8 94,23.47C94.304,23.017 94.679,22.615 95.11,22.28C95.43,22.036 95.788,21.847 96.17,21.72C96.494,21.615 96.83,21.554 97.17,21.54C97.644,21.531 98.117,21.578 98.58,21.68C98.9,21.754 99.204,21.882 99.48,22.06C99.787,22.267 100.065,22.512 100.31,22.79C100.526,23.052 100.701,23.346 100.83,23.66C100.97,24.052 101.041,24.464 101.04,24.88L100.04,24.88C99.76,24.88 99.13,24.88 98.17,24.8L97.43,24.75L95.63,24.75L95.63,24.97C95.635,25.307 95.675,25.642 95.75,25.97C95.779,26.324 95.864,26.672 96,27C96.155,27.271 96.359,27.512 96.6,27.71C96.818,27.898 97.069,28.043 97.34,28.14L97.88,28.32C98.214,28.331 98.549,28.314 98.88,28.27C99.151,28.218 99.416,28.138 99.67,28.03C99.958,27.897 100.233,27.737 100.49,27.55C100.71,27.71 100.89,27.85 101.04,27.98C100.573,28.526 99.997,28.968 99.35,29.28C98.722,29.564 98.039,29.705 97.35,29.69C96.946,29.702 96.542,29.658 96.15,29.56C95.757,29.438 95.388,29.248 95.06,29C94.723,28.768 94.432,28.477 94.2,28.14C93.966,27.821 93.783,27.466 93.66,27.09C93.528,26.741 93.45,26.373 93.43,26C93.423,25.504 93.466,25.008 93.56,24.52ZM99,24.13C98.991,23.787 98.92,23.448 98.79,23.13C98.669,22.829 98.46,22.571 98.19,22.39C97.946,22.222 97.657,22.131 97.36,22.13C96.926,22.14 96.517,22.337 96.24,22.67C95.889,23.089 95.688,23.614 95.67,24.16L98.75,24.16L99,24.13Z" style="fill:rgb(255,212,0);fill-rule:nonzero;"/>
        <path d="M102,29C102.091,28.925 102.196,28.87 102.31,28.84C102.631,28.776 102.937,28.651 103.21,28.47C103.293,27.975 103.32,27.471 103.29,26.97C103.311,25.916 103.278,24.861 103.19,23.81C103.179,23.706 103.124,23.612 103.04,23.55C102.841,23.449 102.629,23.375 102.41,23.33C102.303,23.313 102.217,23.234 102.19,23.13L102.19,22.79C102.636,22.727 103.063,22.567 103.44,22.32C103.761,22.116 104.042,21.855 104.27,21.55C104.348,21.437 104.435,21.33 104.53,21.23L105.18,21.23C105.191,21.346 105.191,21.464 105.18,21.58L105.18,23.14C105.43,22.71 105.62,22.42 105.73,22.27C105.888,22.107 106.055,21.954 106.23,21.81C106.706,21.466 107.367,21.513 107.79,21.92C108.022,22.108 108.158,22.391 108.16,22.69C108.159,22.974 108.06,23.25 107.88,23.47C107.708,23.698 107.435,23.829 107.15,23.82C106.843,23.804 106.55,23.684 106.32,23.48C106.204,23.372 106.057,23.302 105.9,23.28L105.84,23.28C105.681,23.348 105.553,23.473 105.48,23.63C105.307,23.935 105.218,24.28 105.22,24.63L105.22,24.88C105.22,25.34 105.24,26.41 105.28,28.09C105.301,28.254 105.359,28.412 105.45,28.55C105.552,28.632 105.667,28.696 105.79,28.74C105.988,28.782 106.188,28.812 106.39,28.83C106.571,28.822 106.751,28.864 106.91,28.95C106.976,29.019 107.009,29.114 107,29.21C107.01,29.3 107.01,29.39 107,29.48L106.13,29.48L104.35,29.39C103.946,29.388 103.542,29.408 103.14,29.45L103,29.45L102,29.5C101.994,29.423 101.994,29.347 102,29.27C101.989,29.18 101.989,29.09 102,29Z" style="fill:rgb(255,212,0);fill-rule:nonzero;"/>
        <path d="M108.49,29.45L108.49,28.84L109.49,28.7C109.617,28.68 109.732,28.612 109.81,28.51C109.888,28.334 109.919,28.141 109.9,27.95L109.9,23.84C109.9,23.642 109.879,23.444 109.84,23.25C109.74,23.138 109.612,23.056 109.47,23.01C109.145,22.914 108.809,22.863 108.47,22.86L108.47,22.34C109.051,22.316 109.621,22.18 110.15,21.94C110.55,21.742 110.913,21.474 111.22,21.15L112,21.15L112,24.15L111.93,27.93L111.93,28.64C112.236,28.737 112.551,28.804 112.87,28.84C113.006,28.86 113.14,28.894 113.27,28.94L113.27,29.45L112.47,29.45C111.84,29.45 111,29.4 109.94,29.4L109.07,29.4L108.49,29.45ZM109.79,18.38C109.778,18.072 109.898,17.774 110.12,17.56C110.338,17.34 110.641,17.224 110.95,17.24C111.287,17.226 111.615,17.349 111.86,17.58C112.086,17.768 112.218,18.046 112.22,18.34C112.217,18.557 112.169,18.772 112.08,18.97C111.98,19.181 111.82,19.359 111.62,19.48C111.431,19.598 111.213,19.664 110.99,19.67C110.676,19.662 110.379,19.524 110.17,19.29C109.926,19.05 109.789,18.722 109.79,18.38Z" style="fill:rgb(255,212,0);fill-rule:nonzero;"/>
        <path d="M122.12,27.7L122.33,27.84C122.384,27.879 122.423,27.936 122.44,28C122.357,28.429 122.152,28.825 121.85,29.14C121.6,29.352 121.278,29.463 120.95,29.45C120.612,29.458 120.281,29.352 120.01,29.15C119.686,28.861 119.439,28.497 119.29,28.09C119.035,28.55 118.644,28.921 118.17,29.15C117.616,29.406 117.01,29.529 116.4,29.51C115.893,29.552 115.387,29.406 114.98,29.1C114.672,28.836 114.502,28.445 114.52,28.04C114.524,27.826 114.572,27.615 114.66,27.42C114.764,27.186 114.91,26.973 115.09,26.79C115.393,26.522 115.729,26.293 116.09,26.11L116.8,25.8L119.11,24.87L119.11,24.15C119.159,23.566 119.052,22.979 118.8,22.45C118.647,22.25 118.4,22.143 118.15,22.17C117.857,22.167 117.567,22.228 117.3,22.35C117.068,22.438 116.869,22.595 116.73,22.8C116.61,23.041 116.535,23.302 116.51,23.57C116.491,23.731 116.451,23.889 116.39,24.04C116.25,24.188 116.074,24.298 115.88,24.36L115.38,24.57C115.136,24.704 114.867,24.786 114.59,24.81C114.5,24.734 114.451,24.618 114.46,24.5C114.449,24.182 114.525,23.868 114.68,23.59C114.947,23.182 115.285,22.826 115.68,22.54C116.057,22.242 116.479,22.006 116.93,21.84C117.578,21.644 118.254,21.557 118.93,21.58C119.372,21.568 119.811,21.661 120.21,21.85C120.55,22.017 120.815,22.306 120.95,22.66C121.124,23.291 121.195,23.946 121.16,24.6L121.16,27.54C121.141,27.723 121.176,27.907 121.26,28.07C121.318,28.163 121.42,28.22 121.53,28.22C121.595,28.222 121.659,28.2 121.71,28.16L121.98,27.73L122.12,27.7ZM119.12,25.55C118.701,25.697 118.301,25.895 117.93,26.14C117.558,26.351 117.239,26.645 117,27C116.873,27.229 116.811,27.488 116.82,27.75C116.81,27.993 116.896,28.23 117.06,28.41C117.198,28.571 117.398,28.666 117.61,28.67C117.933,28.678 118.248,28.572 118.5,28.37C118.737,28.208 118.932,27.992 119.07,27.74C119.154,27.299 119.184,26.849 119.16,26.4C119.12,26.09 119.1,25.82 119.08,25.55L119.12,25.55Z" style="fill:rgb(255,212,0);fill-rule:nonzero;"/>
    </g>
    <path d="M40.74,18.82C45.94,19.789 50.831,21.995 55,25.25L36.21,6.46C35.264,5.514 33.706,5.514 32.76,6.46L30.57,8.65L40.74,18.82Z" style="fill:rgb(217,184,0);fill-opacity:0.8;fill-rule:nonzero;"/>
    <path d="M55,25.75C54.887,25.749 54.778,25.71 54.69,25.64C50.594,22.445 45.794,20.275 40.69,19.31C40.589,19.288 40.496,19.239 40.42,19.17L30.22,9C30.123,8.909 30.068,8.783 30.068,8.65C30.068,8.517 30.123,8.391 30.22,8.3L32.41,6.1C33.564,4.989 35.416,4.989 36.57,6.1L55.35,24.89C55.533,25.082 55.533,25.388 55.35,25.58C55.263,25.683 55.135,25.745 55,25.75ZM41,18.35C44.548,19.039 47.964,20.288 51.12,22.05L35.86,6.81C35.094,6.09 33.886,6.09 33.12,6.81L31.28,8.65L41,18.35Z" style="fill:white;fill-rule:nonzero;"/>
    <path d="M23.75,20.12C32.172,20.11 40.358,22.928 46.99,28.12L25.7,6.78C25.182,6.261 24.478,5.968 23.745,5.968C23.012,5.968 22.308,6.261 21.79,6.78L0.5,28.07C7.142,22.896 15.331,20.096 23.75,20.12Z" style="fill:rgb(217,184,0);fill-rule:nonzero;"/>
    <path d="M0.5,28.57C0.357,28.576 0.219,28.512 0.13,28.4C-0.052,28.211 -0.052,27.909 0.13,27.72L21.44,6.43C22.718,5.197 24.772,5.197 26.05,6.43L47.35,27.72C47.522,27.913 47.522,28.207 47.35,28.4C47.178,28.598 46.879,28.629 46.67,28.47C33.211,18.036 14.249,18.036 0.79,28.47C0.706,28.533 0.605,28.568 0.5,28.57ZM23.75,6.47C23.15,6.468 22.574,6.706 22.15,7.13L4.52,24.76C16.406,17.914 31.084,17.914 42.97,24.76L25.35,7.13C24.924,6.709 24.349,6.472 23.75,6.47Z" style="fill:white;fill-rule:nonzero;"/>
    <path d="M13.08,23.64L11.48,25.25C12.358,24.558 13.273,23.914 14.22,23.32L13.08,23.64Z" style="fill:rgb(217,184,0);fill-rule:nonzero;"/>
    <path d="M11.48,25.75C11.476,25.75 11.471,25.75 11.467,25.75C11.193,25.75 10.967,25.524 10.967,25.25C10.967,25.114 11.022,24.984 11.12,24.89L12.73,23.29C12.787,23.228 12.859,23.183 12.94,23.16L14.09,22.84C14.139,22.825 14.189,22.817 14.24,22.817C14.514,22.817 14.74,23.043 14.74,23.317C14.74,23.495 14.645,23.661 14.49,23.75C13.555,24.329 12.654,24.96 11.79,25.64C11.7,25.707 11.592,25.745 11.48,25.75Z" style="fill:white;fill-rule:nonzero;"/>
</svg>
