<svg xmlns="http://www.w3.org/2000/svg" width="144.429" height="25" viewBox="0 0 144.429 25"><g transform="translate(0.5)"><g transform="translate(-16.311 -14.354)"><path d="M30.664,27.031a24.989,24.989,0,0,1,15.448,5.282L31.962,18.164a1.836,1.836,0,0,0-2.6,0L15.216,32.314A24.988,24.988,0,0,1,30.664,27.031Z" transform="translate(10.129)" fill="#d9b800" stroke="#fff" stroke-linecap="round" stroke-linejoin="round" stroke-width="1" opacity="0.5"/><path d="M24.452,27.442a29.462,29.462,0,0,1,18.212,6.226L25.982,16.988a2.164,2.164,0,0,0-3.061,0L6.24,33.669A29.459,29.459,0,0,1,24.452,27.442Z" transform="translate(10.071)" fill="rgba(217,184,0,0.8)" stroke="#fff" stroke-linecap="round" stroke-linejoin="round" stroke-width="1"/></g><g transform="translate(-77.071 -30)"><text transform="translate(141 49)" fill="#fff" font-size="25" font-family="Helvetica-Bold, Helvetica" font-weight="700"><tspan x="0" y="0">Bridge</tspan></text><text transform="translate(122 49)" fill="#fff" font-size="12" font-family="Lato-Regular, Lato"><tspan x="0" y="0">the</tspan></text></g></g></svg>